<?xml version="1.0" standalone="yes"?>
<svg xmlns="http://www.w3.org/2000/svg" width="512" height="512">
<path style="fill:#fefdfd; stroke:none;" d="M0 0L0 512L512 512L512 0L0 0z"/>
<path style="fill:#a3a0a3; stroke:none;" d="M157 230L154 237L158 229L226 229C230.088 229 245.976 226.701 247.006 232.228C248.193 238.593 238.283 250.567 235.306 256C227.841 269.621 220.814 283.488 213.15 297C209.158 304.037 203.062 311.881 202 320C173.305 314.673 140.192 319 111 319L154 238L153 238L124.705 289.999L109 319C128.432 324.744 155.695 320 176 320C180.275 320 196.547 317.621 198.481 322.318C200.848 328.066 190.056 340.536 188 346L189 346L202 320L227 321L264 322C262.788 328.718 258.563 335.072 255.27 341C247.447 355.082 239.225 379.596 223 385.601C207.674 391.273 184.271 387 168 387L188 347L187 347L166 387C172.012 388.777 178.761 388 185 388C199.602 388 219.634 391.865 231.816 382.275C241.424 374.711 246.797 359.53 252.576 349C257.248 340.486 264.49 330.942 265 321L203 319C214.112 296.275 227.047 274.107 239.349 252C241.526 248.088 252 233.793 248.342 229.742C244.528 225.52 230.264 228 225 228C204.558 228 179.889 231.735 160 227C171.239 200.79 186.467 174.805 200.568 150C207.079 138.547 218.342 124.234 220 111C207.713 108.719 194.469 110 182 110C155.96 110 122.043 103.894 100.428 121.348C84.8462 133.93 76.4437 158.691 67.0802 176C60.2572 188.613 53.7841 201.421 46.9059 214C45.2852 216.964 39.6871 223.882 42.0818 227.397C44.9922 231.668 66.0671 229 71 229L127 229C136.749 229 147.479 227.733 157 230M375 153C385.899 153 400.564 155.575 411 152.348C422.55 148.777 436.264 122.459 437 111C426.258 111 412.342 108.649 402 111.638C389.648 115.208 375.816 140.721 375 153z"/>
<path style="fill:#65686a; stroke:none;" d="M85 146C89.494 142.846 91.3207 136.499 94.3596 132C98.5891 125.738 104.291 120.961 111.004 117.525C122.969 111.399 135.935 113 149 113L217 113L190 166L191 166C198.911 149.792 216.152 130.042 218 112L150 112C139.691 112 126.86 109.967 117 113.301C101.221 118.636 91.2202 131.064 85 146M376 152L377 152C381.9 140.234 389.652 119.696 402 114.367C411.109 110.436 425.197 113 435 113L420 142L421 142L436 112C425.471 112 410.939 109.422 401.015 113.188C389.619 117.513 378.065 140.549 376 152z"/>
<path style="fill:#121a1c; stroke:none;" d="M43 226L158 227L172.691 198L202.079 143L217 113L149 113C138.132 113 125.215 111.022 115 115.229C98.1375 122.174 91.9553 135.471 83.4537 150.439C69.643 174.755 53.7416 200.207 43 226M377 152C386.564 152 398.846 154.04 408 151.084C420.66 146.997 431.415 125.208 435 113C425.067 113 411.401 110.576 402 113.97C390.047 118.286 380.331 140.437 377 152z"/>
<path style="fill:#65686a; stroke:none;" d="M418 143L418 146L419 146L420 143L418 143M417 146L418 147L417 146M84 147L83 150L84 147M412 149L412 150L417 148L412 149M82 150L80 156L81 156L82 150M407 151L407 152L412 151L407 151z"/>
<path style="fill:#a3a0a3; stroke:none;" d="M306 152.598C282.182 158.315 273.26 186.274 263.46 205.985C261.418 210.093 251.088 222.918 254.083 227.258C256.538 230.816 267.23 229 271 229C287.645 229 306.735 231.56 323 227.624C344.797 222.35 353.491 191.399 362.836 174C364.815 170.314 374.283 157.485 371.864 153.603C369.793 150.281 359.386 152 356 152C340.403 152 321.17 148.957 306 152.598z"/>
<path style="fill:#65686a; stroke:none;" d="M304 154L304 155L370 155L357 181L358 181L371 154L304 154M254 227L268 227L268 226L256 226C258.943 218.967 263.317 212.789 266.688 206C275.911 187.424 283.335 165.372 303 156C296.092 154.849 288.415 162.831 284.839 168C273.343 184.618 260.509 207.915 254 227z"/>
<path style="fill:#121a1c; stroke:none;" d="M256 226L302 226C310.155 226 319.378 227.323 326.985 223.901C335.659 220 340.228 211.937 344.651 204C353.386 188.324 363.686 171.776 370 155L325 155C317.77 155 308.879 153.612 302 156.105C282.89 163.03 275.042 188.173 266.688 205C263.182 212.06 258.213 218.334 256 226z"/>
<path style="fill:#65686a; stroke:none;" d="M79.3333 156.667L79.6667 157.333L79.3333 156.667M78.3333 158.667L78.6667 159.333L78.3333 158.667M77 160L76 162L78 162L77 160M75.3333 163.667L75.6667 164.333L75.3333 163.667M74 165L75 166L74 165M73 166L73 169L74 169L73 166M189 167L188 170L189 167M72 169L71 173L72 173L72 169M187 170L186 174L187 174L187 170M70 173L69 176L70 173M185.333 174.667L185.667 175.333L185.333 174.667M68 176L67 180L68 180L68 176M184 176L185 177L184 176M183 177L183 180L184 180L183 177M66 180L65 184L66 184L66 180M182 180L183 181L182 180M181.333 181.667L181.667 182.333L181.333 181.667M356 182L357 183L356 182M180 183L177 190L178 190L180 183M355.333 183.667L355.667 184.333L355.333 183.667M64 184L63 188L64 188L64 184M354 185L353 189L354 189L354 185M62.3333 188.667L62.6667 189.333L62.3333 188.667M352 189L350 195L351 195L352 189M61 190L60 193L61 190M176 190L175 194L176 194L176 190M59 193L58 197L59 197L59 193M174.333 194.667L174.667 195.333L174.333 194.667M173.333 196.667L173.667 197.333L173.333 196.667M348 196L348 199L349 199L350 196L348 196M57.3333 197.667L57.6667 198.333L57.3333 197.667M172 198L173 199L172 198M56 199L55 203L56 203L56 199M347 199L346 202L347 199M171 200L172 201L171 200M170.333 201.667L170.667 202.333L170.333 201.667M345 202L343 208L344 208L345 202M54 203L53 207L54 207L54 203M169.333 203.667L169.667 204.333L169.333 203.667M168 205L167 209L168 209L168 205M52 207L51 210L52 207M342 208L341 212L342 212L342 208M166 209L165 213L166 213L166 209M50 210L49 214L50 214L50 210M340 212L341 213L340 212M164 213L163 217L164 217L164 213M339 213L340 214L339 213M48.3333 214.667L48.6667 215.333L48.3333 214.667M338 214L334 220L338 214M47 216L48 217L47 216M46.3333 217.667L46.6667 218.333L46.3333 217.667M162 217L161 220L162 217M45.3333 219.667L45.6667 220.333L45.3333 219.667M160 220L159 224L160 224L160 220M332 220L332 222L334 220L332 220M44.3333 221.667L44.6667 222.333L44.3333 221.667M329.667 222.333L330.333 222.667L329.667 222.333M43.3333 223.667L43.6667 224.333L43.3333 223.667M328 223L329 224L328 223M158 224L156 227L156 228C158.649 227.432 159.355 226.412 158 224M325 224L325 225L328 225L325 224M42 225L48 227L48 226L42 225M323.667 225.333L324.333 225.667L323.667 225.333M51 226L51 227L58 227L51 226M62 226L62 227L146 227L120 226L62 226M148 226L148 227L155 227L148 226M269 226L269 227L274 227L269 226M277 226L277 227L323 227C311.061 221.99 290.003 226 277 226M158 229C152.372 250.845 134.806 274.24 123.83 294C119.438 301.907 113.033 310.113 111 319L112 319C120.284 296.374 136.068 273.717 148 252.715C151.513 246.532 155.042 233.475 162.104 230.603C167.288 228.495 175.465 230 181 230L225 230C229.478 230 241.826 227.855 245.069 231.434C247.382 233.985 242.909 240.334 242 243C244.318 240.706 250.134 233.298 246.381 230.179C242.01 226.546 228.473 229 223 229L158 229z"/>
<path style="fill:#121a1c; stroke:none;" d="M112 319L201 319C207.296 297.188 224.468 275.218 235.025 255C237.78 249.722 247.527 238.54 245.918 232.318C244.957 228.602 236.791 230 234 230L198 230C188.745 230 168.277 226.133 160.376 231.028C154.059 234.941 151.035 246.478 147.5 252.715C139.786 266.323 132.767 280.358 125.125 294C120.726 301.853 114.022 310.184 112 319z"/>
<path style="fill:#a3a0a3; stroke:none;" d="M366 296C358.585 292.224 363.916 285.501 366.742 280C370.085 273.494 373.399 265.553 378.518 260.228C384.819 253.675 390.899 255.563 394 245C387.984 241.328 389.76 237.787 392 232C372.151 226.135 359.383 266.012 352.245 280C349.498 285.381 343.662 292.678 344.202 299C345.488 314.057 364.218 307.845 366 296z"/>
<path style="fill:#a93050; stroke:none;" d="M389 232C378.876 232.294 377.132 238.328 372.47 246C365.243 257.894 358.578 270.546 352.347 283C349.57 288.55 342.833 297.892 348.434 303.682C352.014 307.383 360.236 306.892 362.485 301.941C364.793 296.859 358.957 292.815 361.53 287C365.534 277.951 370.697 266.466 377.554 259.214C381.25 255.305 387.483 256.344 389.847 250.949C391.902 246.262 387.946 245.027 387.522 240.896C387.233 238.072 388.716 234.848 389 232z"/>
<path style="fill:#65686a; stroke:none;" d="M389 232L390 233L389 232M388 236L389 237L388 236z"/>
<path style="fill:#a3a0a3; stroke:none;" d="M296 256C297.738 274.162 275.204 288.882 274 307C294.584 306.941 299.478 281.923 308.34 267C312.592 259.84 317.895 248.573 307.985 243.457C302.851 240.807 295.597 242 290 242C283.93 242 276.93 241.051 271 242.47C253.152 246.741 246.883 264.34 239.16 279C235.822 285.337 232.611 291.761 229.093 298C227.985 299.963 225.539 303.063 227.086 305.397C230.606 310.708 239.661 304.061 241.946 300.957C249.214 291.086 254.205 278.758 260.081 268C261.837 264.785 265.143 257.319 269.809 257.886C274.624 258.471 269.472 267.079 268.495 269C263.874 278.093 258.767 287.011 253.92 296C252.68 298.299 248.856 303.566 251.647 305.971C256.516 310.169 264.826 302.612 267.301 298.996C275.962 286.346 280.645 262.042 296 256M342 242.518C321.886 246.808 314.146 267.727 305.374 284C298.012 297.659 298.567 310.36 318 307.23C337.432 304.1 351.245 274.436 357.532 258C361.929 246.504 352.859 240.202 342 242.518z"/>
<path style="fill:#65686a; stroke:none;" d="M374 242L375 243L374 242z"/>
<path style="fill:#a3a0a3; stroke:none;" d="M414 242.61C393.213 247.933 385.078 270.683 376.258 288C369.965 300.356 374.807 310.952 390 307.471C410.571 302.757 424.294 274.328 431.009 256C435.128 244.757 423.096 240.28 414 242.61z"/>
<path style="fill:#65686a; stroke:none;" d="M241 244L235 256L236 256L241 244M270.667 244.333L271.333 244.667L270.667 244.333z"/>
<path style="fill:#a93050; stroke:none;" d="M227 305C237.196 307.189 240.88 299.805 245.084 292C250.564 281.826 255.868 268.806 263.34 260.019C266.318 256.516 273.848 253.337 273.472 261.005C273.254 265.465 269.738 270.257 267.576 274C265.473 277.638 263.418 281.265 261.49 285C258.11 291.549 253.971 297.853 252 305C260.969 306.732 265.297 298.774 268.82 291.999C274.1 281.845 279.976 267.644 287.519 259.109C290.227 256.044 297.226 253.589 297.644 260.019C297.913 264.174 293.95 269.529 291.989 272.985C289.706 277.009 287.328 280.905 285.16 285.001C281.743 291.457 277.7 297.846 276 305C292.314 307.451 300.232 278.233 306.731 267C309.569 262.094 314.313 253.872 310.972 248.144C307.041 241.405 292.503 244 286 244C277.176 244 267.742 243.722 260.04 248.874C254.934 252.29 252.733 258 249.576 263C241.216 276.236 233.935 290.996 227 305z"/>
<path style="fill:#65686a; stroke:none;" d="M305.667 244.333L306.333 244.667L305.667 244.333M340.667 244.333L341.333 244.667L340.667 244.333z"/>
<path style="fill:#a93050; stroke:none;" d="M342 244.468C322.533 248.139 315.478 268.358 307.219 284C301.028 295.727 298.62 308.217 317 305.786C335.125 303.389 340.853 284.736 348.449 271C351.434 265.603 356.18 260.265 357.201 254C358.689 244.863 348.766 243.192 342 244.468z"/>
<path style="fill:#65686a; stroke:none;" d="M413 244L414 245L413 244z"/>
<path style="fill:#a93050; stroke:none;" d="M414 244.478C394.441 248.413 388.163 269.704 379.576 285C373.186 296.385 372.378 308.186 389 305.79C409.102 302.892 416.258 280.394 424.718 265C431.224 253.16 431.2 241.018 414 244.478z"/>
<path style="fill:#65686a; stroke:none;" d="M423.667 244.333L424.333 244.667L423.667 244.333M309 245L310 246L309 245M337 245L338 246L337 245M354 245L355 246L354 245M391.333 245.667L391.667 246.333L391.333 245.667M428 245L429 246L428 245M265 246L266 247L265 246M372 246L373 247L372 246M408 246L409 247L408 246M311 247L312 248L311 247M333 247L334 248L333 247M356 247L357 248L356 247M429 247L430 248L429 247M402 249L403 250L402 249M357 250L358 251L357 250M369 250L370 251L369 250M368 253L369 254L368 253M367 254L368 255L367 254M267 255L268 256L267 255M291 255L292 256L291 255M385 255L386 256L385 255z"/>
<path style="fill:#a3a0a3; stroke:none;" d="M413 255C402.853 258.459 398.131 273.186 393.306 282C391.883 284.599 386.918 291.603 391.323 293.783C395.581 295.891 399.182 289.89 400.821 286.999C405.325 279.059 417.095 263.958 413 255z"/>
<path style="fill:#65686a; stroke:none;" d="M429 255L430 256L429 255M234 256L233 260L234 260L234 256z"/>
<path style="fill:#a3a0a3; stroke:none;" d="M337.1 256.762C329.585 259.645 322.621 278.977 319.274 286C317.928 288.824 316.353 295.377 321.976 293.958C325.563 293.053 327.333 288.901 328.999 286C333.36 278.407 338.855 270.284 341.768 262.005C343.033 258.408 341.262 255.165 337.1 256.762z"/>
<path style="fill:#65686a; stroke:none;" d="M366 257L367 258L366 257M428 257L429 258L428 257M287 258L288 259L287 258M321 258L322 259L321 258z"/>
<path style="fill:#fefdfd; stroke:none;" d="M320 293C329.644 288.456 337.703 267.827 341 258C332.293 259.841 318.593 284.46 320 293z"/>
<path style="fill:#65686a; stroke:none;" d="M365 258L366 259L365 258z"/>
<path style="fill:#fefdfd; stroke:none;" d="M391 292L392 293C401.39 287.895 410.774 268.287 413 258C403.101 260.093 394.299 283.056 391 292z"/>
<path style="fill:#65686a; stroke:none;" d="M333 259L334 260L333 259M393 259L394 260L393 259M232 260L231 263L232 260M251 260L252 261L251 260M286 260L287 261L286 260M285 261L286 262L285 261M332 261L333 262L332 261M363 262L364 263L363 262M230 263L229 267L230 267L230 263M284 263L285 264L284 263M331 263L332 264L331 263M283 264L284 265L283 264M340 264L341 265L340 264M412 264L413 265L412 264M295 266L296 267L295 266M339 266L340 267L339 266M361 266L362 267L361 266M228 267L226 272L228 267M271 267L272 268L271 267M329 267L330 268L329 267M246 268L247 269L246 268M294 268L295 269L294 268M338 268L339 269L338 268M349 268L350 269L349 268M245 269L246 270L245 269M327 270L328 271L327 270M337 270L338 271L337 270M359 270L360 271L359 270M387 270L388 271L387 270M409 270L410 271L409 270M225 272L224 276L225 276L225 272M244 272L245 273L244 272M326 272L327 273L326 272M408 272L409 273L408 272M267 274L268 275L267 274M325 274L326 275L325 274M223 276L222 280L223 280L223 276M242 276L243 277L242 276M253 276L254 277L253 276M345 276L346 277L345 276M265 277L266 278L265 277M344 277L345 278L344 277M405 277L406 278L405 277M354 279L355 280L354 279M221.333 280.667L221.667 281.333L221.333 280.667M322 280L323 281L322 280M404 280L405 281L404 280M308 281L309 282L308 281M321 281L322 282L321 281M403 281L404 282L403 281M220 282L219 286L220 286L220 282M286 282L287 283L286 282M415 282L416 283L415 282M238 283L239 284L238 283M248 285L249 286L248 285M296 285L297 286L296 285M306 285L307 286L306 285M319 285L320 286L319 285M391 285L392 286L391 285M218 286L217 289L218 286M260 287L261 288L260 287M305 287L306 288L305 287M318 287L319 288L318 287M350 287L351 288L350 287M400 287L401 288L400 287M270 288L271 289L270 288M317.333 288.667L317.667 289.333L317.333 288.667M327 288L328 289L327 288M349 288L350 289L349 288M294 289L295 290L294 289M399 289L400 290L399 289M216 290L215 293L216 290M269 290L270 291L269 290M293 291L294 292L293 291M316 291L317 292L316 291M244 292L245 293L244 292M268 292L269 293L268 292M409 292L410 293L409 292M214 293L212 299L213 299L214 293M233 293L234 294L233 293M256 294L257 295L256 294M346.333 294.667L346.667 295.333L346.333 294.667M408 294L409 295L408 294M232 295L233 296L232 295M243 295L244 296L243 295M374 295L375 296L374 295M242 296L243 297L242 296M231 297L232 298L231 297M266 297L267 298L266 297M332 297L333 298L332 297M373 298L374 299L373 298M404 298L405 299L404 298M211 299L212 300L211 299M230 299L231 300L230 299M264 299L265 300L264 299M210.333 300.667L210.667 301.333L210.333 300.667M363 300L364 301L363 300M287 301L288 302L287 301M301 301L302 302L301 301M346 301L347 302L346 301M374 301L375 302L374 301M209 302L208 306L209 306L209 302M252 302L253 303L252 302M276 302L277 303L276 302M375 302L376 303L375 302M227 303L228 304L227 303M260 303L261 304L260 303M347 303L348 304L347 303M275 304L276 305L275 304M393 304L394 305L393 304M227.667 305.333L228.333 305.667L227.667 305.333M252 305L253 306L252 305M276.667 305.333L277.333 305.667L276.667 305.333M309.667 305.333L310.333 305.667L309.667 305.333M319 305L320 306L319 305M360 305L361 306L360 305M377 305L378 306L377 305M391 305L392 306L391 305M207 306L206 309L207 306M205 309L202 316L203 316L205 309M201 316L199 319L199 320C201.649 319.432 202.355 318.412 201 316M202 320L191 342C197.7 337.902 197.725 328.442 203.474 323.603C209.709 318.356 230.02 322 238 322L238 321L202 320z"/>
<path style="fill:#121a1c; stroke:none;" d="M169 385C175.044 386.639 181.767 386 188 386C201.411 386 219.871 389.44 230.896 380.25C239.189 373.337 243.763 360.338 248.836 351.004C251.855 345.448 263.969 330.787 261.343 324.434C260.16 321.575 256.345 322.474 254 322.718C246.556 323.494 239.403 322.036 232 322.001C225.001 321.967 209.381 319.09 203.474 323.028C199.243 325.848 197.153 333.711 194.551 337.961C185.311 353.053 176.776 369.068 169 385z"/>
<path style="fill:#65686a; stroke:none;" d="M239 322L239 323L256 323L239 322M260 322L260 323L262 328L263 328L264 322L260 322z"/>
<path style="fill:#a3a0a3; stroke:none;" d="M382 388C373.42 384.961 379.856 377.581 382.742 372C386.036 365.628 389.299 357.364 394.518 352.314C401.054 345.989 406.944 347.589 410 337C401.692 333.621 410.313 321.438 400 323.384C392.363 324.825 390.149 331.915 386.705 337.91C379.512 350.435 372.709 363.188 366.025 376C363.314 381.195 358.332 387.828 360.743 393.981C365.71 406.656 380.944 398.256 382 388z"/>
<path style="fill:#65686a; stroke:none;" d="M400 324L401 325L400 324z"/>
<path style="fill:#a93050; stroke:none;" d="M380 390C370.484 382.432 386.795 357.084 394.34 350.43C397.804 347.374 402.724 348.355 405.156 343.892C407.797 339.043 404.049 337.713 403.255 333.385C402.781 330.799 404.42 327.508 405 325C395.857 323.214 392.939 330.325 389.125 336.985C382.151 349.163 375.306 361.504 368.861 374C366.288 378.989 361.833 385.172 362.152 390.999C362.81 403.021 377.47 398.731 380 390z"/>
<path style="fill:#65686a; stroke:none;" d="M404 324L405 325L404 324M398 325L399 326L398 325M395 326L396 327L395 326M404 327L405 328L404 327M261 328L260 331L261 328M259 332L258 335L259 332M391 332L392 333L391 332z"/>
<path style="fill:#a3a0a3; stroke:none;" d="M241 398C259.423 403.443 267.076 376.643 273.92 364C275.958 360.235 279.567 350.257 284.938 350.331C290.548 350.409 284.96 359.96 283.88 362C279.103 371.024 274.16 379.973 269.374 389C268.138 391.332 264.644 396.572 268.333 398.393C272.965 400.678 278.941 396.169 281.775 392.957C291.345 382.11 294.955 365.895 303.395 354.094C305.094 351.719 312.815 346.611 311.782 353.305C311.086 357.816 307.359 363.064 305.128 367C302.865 370.992 300.629 374.98 298.414 379C295.085 385.04 291.078 391.434 289 398C308.083 403.638 315.519 374.701 322.579 362C325.771 356.257 331.934 348.037 329.254 341.015C325.548 331.308 308.976 335 301 335C292.829 335 284.376 334.265 277.04 338.633C270.627 342.453 267.334 348.862 263.579 355C255.556 368.112 246.334 383.625 241 398M362 334.465C339.894 336.398 331.604 356.712 322.449 374C316.245 385.716 309.979 400.909 330 399.96C352.448 398.896 363.66 370.117 372.19 353C376.679 343.992 373.916 333.423 362 334.465z"/>
<path style="fill:#65686a; stroke:none;" d="M390 334L391 335L390 334z"/>
<path style="fill:#a3a0a3; stroke:none;" d="M429 350C427.305 354.959 425.283 359.445 420 361L420 362C427.568 361.428 430.678 355.089 430 348L411 353C412.426 343.76 424.165 336.932 433 336.188C437.595 335.802 444.287 336.707 445.526 342.019C446.91 347.953 441.162 355.055 438.551 360C435.01 366.707 424.909 379.389 425.526 387C425.805 390.443 428.752 393.791 430 397C424.189 398.319 421.352 394.647 416 394.542C409.048 394.405 399.448 402.752 392.642 396.41C387.793 391.893 391.351 385.657 393.836 381C400.205 369.068 404.468 362.04 419 362L419 361C403.413 361 399.091 366.223 392.248 380C389.432 385.668 385.475 393.522 392.133 398.258C399.769 403.688 410.704 397.871 418 395C420.055 398.29 427.932 402.106 430.867 397.4C433.188 393.681 426.998 388.481 428.166 384C431.367 371.721 451.228 354.097 447.191 341.019C442.736 326.582 411.007 338.15 409.337 350.15C408.014 359.657 425.41 351.222 429 350z"/>
<path style="fill:#65686a; stroke:none;" d="M257 336L255 341L256 341L257 336M287 336L287 337L312 337L287 336z"/>
<path style="fill:#a93050; stroke:none;" d="M243 398C263.701 397.815 267.829 365.24 279.34 352.045C282.201 348.764 289.047 346.087 289.292 353.005C289.44 357.189 285.558 362.55 283.492 366C281.32 369.629 279.225 373.267 277.233 377C273.679 383.662 269.299 390.48 268 398C288.133 396.704 292.016 363.898 303.599 351.225C306.659 347.876 313.656 346.397 313.378 353.005C313.199 357.257 309.445 362.359 307.421 366C305.37 369.69 303.168 373.28 301.164 377C297.598 383.621 292.78 390.385 292 398C308.758 397.131 315.029 372.485 322.144 360C324.985 355.015 330.467 346.161 326.821 340.344C322.781 333.9 308.336 336.998 302 337C293.548 337.003 284.74 336.153 277.093 340.542C271.463 343.774 268.901 349.726 265.634 355C257.601 367.968 247.76 383.527 243 398z"/>
<path style="fill:#65686a; stroke:none;" d="M314 336L314 337L321 337L314 336M358.667 336.333L359.333 336.667L358.667 336.333z"/>
<path style="fill:#a93050; stroke:none;" d="M360 336.433C339.714 339.188 332.776 358.013 324.164 374C317.327 386.693 313.119 399.784 333 397.896C350.055 396.276 356.38 377.726 363.46 365C366.359 359.79 370.218 354.666 372.185 349C375.284 340.075 368.308 335.305 360 336.433z"/>
<path style="fill:#65686a; stroke:none;" d="M366.667 336.333L367.333 336.667L366.667 336.333M389 336L390 337L389 336M430 336L430 337L439 337L430 336M284 337L285 338L284 337M324 337L325 338L324 337M369 337L370 338L369 337M406 337L407 338L406 337z"/>
<path style="fill:#a93050; stroke:none;" d="M411 353L430 348C430.187 352.472 429.167 358.517 424.787 360.937C418.357 364.489 409.9 360.387 403.263 365.283C393.122 372.765 382 398.321 402 397.995C406.716 397.919 410.494 395.392 415 395.006C420.55 394.531 423.979 398.759 430 397C428.997 393.145 425.31 389.022 426.113 385C428.811 371.495 448.385 356.373 445.502 342.044C444.337 336.255 438.693 336.992 434 337C424.267 337.016 412.203 342.197 411 353z"/>
<path style="fill:#65686a; stroke:none;" d="M443 337L444 338L443 337M282 338L283 339L282 338M325 338L326 339L325 338M352 338L353 339L352 338M388 338L389 339L388 338M407 338L408 339L407 338M424 338L425 339L424 338M278 339L279 340L278 339M371 339L372 340L371 339M422 339L423 340L422 339M327 340L328 341L327 340M445.333 340.667L445.667 341.333L445.333 340.667M254 341L253 345L254 345L254 341M386 341L387 342L386 341M406 341L407 342L406 341M190.333 343.667L190.667 344.333L190.333 343.667M189 345L190 346L189 345M251 345L251 348L252 348L253 345L251 345M384 345L385 346L384 345M404 345L405 346L404 345M188 346L188 349L189 349L188 346M270 346L271 347L270 346M383 346L384 347L383 346M284.667 347.333L285.333 347.667L284.667 347.333M309 347L309 348L312 348L309 347M339 347L340 348L339 347M250 348L247 355L248 355L250 348M269 348L270 349L269 348M282 348L283 349L282 348M327 348L328 349L327 348z"/>
<path style="fill:#a3a0a3; stroke:none;" d="M353.079 348.877C345.625 351.93 336.172 373.572 333.472 380.995C332.269 384.303 334.147 387.432 337.951 386.199C345.57 383.729 354.651 362.169 357.455 355.001C358.86 351.41 357.88 346.911 353.079 348.877z"/>
<path style="fill:#65686a; stroke:none;" d="M411 348L412 349L411 348M187 349L186 353L187 353L187 349M304 349L305 350L304 349M351 349L352 350L351 349M382 349L383 350L382 349M444 349L445 350L444 349z"/>
<path style="fill:#fefdfd; stroke:none;" d="M335 385C345.312 382.474 352.692 360.055 357 351C347.645 350.645 336.089 376.677 335 385z"/>
<path style="fill:#65686a; stroke:none;" d="M381 350L382 351L381 350M279 351L280 352L279 351M349 351L350 352L349 351M302 352L303 353L302 352M370 352L371 353L370 352M380 352L381 353L380 352M185 353L184 356L185 353M335 353L336 354L335 353M266 354L267 355L266 354M313 354L314 355L313 354M379 354L380 355L379 354M246 355L244 361L245 361L246 355M300 355L301 356L300 355M347 355L348 356L347 355M183 356L182 360L183 360L183 356M288 356L289 357L288 356M299 356L300 357L299 356M346 356L347 357L346 356M428 356L429 357L428 356M355 358L356 359L355 358M377 358L378 359L377 358M439 358L440 359L439 358M181 360L180 364L181 364L181 360M262 360L263 361L262 360M354 360L355 361L354 360M426 360L427 361L426 360M261 361L262 362L261 361M386 361L387 362L386 361M425 361L426 362L425 361M242 362L242 364L244 362L242 362M343 362L344 363L343 362M179 364L177 369L178 369L179 364M241 364L240 368L241 368L241 364M260 364L261 365L260 364M342 364L343 365L342 364M283 366L284 367L283 366M341 366L342 367L341 366M239.333 368.667L239.667 369.333L239.333 368.667M269 368L270 369L269 368M400 368L401 369L400 368M176 369L175 372L176 369M326 369L327 370L326 369M238 370L239 371L238 370M433 370L434 371L433 370M237.333 371.667L237.667 372.333L237.333 371.667M256 371L257 372L256 371M359 371L360 372L359 371M370 371L371 372L370 371M291 372L292 373L291 372M338 372L339 373L338 372M174 373L173 376L174 373M236 373L234 378L235 378L236 373M324 373L325 374L324 373M337 373L338 374L337 373z"/>
<path style="fill:#a3a0a3; stroke:none;" d="M418 373C413.278 373.043 400.629 378.345 406.046 385.381C411.292 392.195 417.652 376.393 418 373z"/>
<path style="fill:#65686a; stroke:none;" d="M418 373L418 376L419 376L420 373L418 373M431 374L432 375L431 374M254 375L255 376L254 375M336 375L337 376L336 375M357 375L358 376L357 375M396 375L397 376L396 375z"/>
<path style="fill:#fefdfd; stroke:none;" d="M407 384L411 385L416 375C410.391 375.435 408.581 378.92 407 384z"/>
<path style="fill:#65686a; stroke:none;" d="M172 376L171 380L172 380L172 376M301 376L302 377L301 376M335 377L336 378L335 377M407 377L408 378L407 377M233 378L234 379L233 378M232 379L233 380L232 379M311 379L312 380L311 379M321 379L322 380L321 379M366 379L367 380L366 379M170 380L168 387L224 386L224 385L169 385L170 380M229 382L232 380L229 382M286 380L287 381L286 380M333 380L334 381L333 380M343 380L344 381L343 380M365 380L366 381L365 380M376 380L377 381L376 380M310 381L311 382L310 381M342 381L343 382L342 381M415 381L416 382L415 381M225 385L229 382L225 385M332 382L333 383L332 382M375 382L376 383L375 382M309 383L310 384L309 383M260 384L261 385L260 384M284 384L285 385L284 384M283 385L284 386L283 385M317 386L318 387L317 386M362 386L363 387L362 386M248 387L249 388L248 387M390 387L391 388L390 387M258 388L259 389L258 388M282 389L283 390L282 389M348 389L349 390L348 389M378 389L379 390L378 389M257 390L258 391L257 390M305 390L306 391L305 390M361 390L361 393L362 393L361 390M389.333 390.667L389.667 391.333L389.333 390.667M246 391L247 392L246 391M346 391L347 392L346 391M245 392L246 393L245 392M269 392L270 393L269 392M345 392L346 393L345 392M303 393L304 394L303 393M268 394L269 395L268 394M317 394L318 395L317 394M362 394L363 395L362 394M243 395L244 396L243 395M301 395L302 396L301 395M318 395L319 396L318 395M391 395L392 396L391 395M274 396L275 397L274 396M291.333 396.667L291.667 397.333L291.333 396.667M319 396L320 397L319 396M409 396L410 397L409 396M297 397L298 398L297 397M320 397L321 398L320 397M392 397L393 398L392 397M408 397L409 398L408 397M397 398L397 399L400 399L397 398z"/>
</svg>
